<svg xmlns="http://www.w3.org/2000/svg" version="1.1" xlink="http://www.w3.org/1999/xlink" xmlns:svgjs="http://svgjs.com/svgjs" width="100%" height="100%" viewBox="3.1226048469543457 15.625 93.72843933105469 81.25162506103516"><g fill="#1994eb"><path d="M68.258 96.875a1.564 1.564 0 0 0 1.563-1.563V89.13l.984-11.812.594 4.156c.113.77.77 1.34 1.547 1.34H87.23a6.253 6.253 0 0 0 6.027 4.687h1.562a1.564 1.564 0 0 0 1.563-1.562v-12.5a1.564 1.564 0 0 0-1.563-1.563h-12.5v-4.687a1.562 1.562 0 1 0-3.125 0v6.25A1.568 1.568 0 0 0 80.758 75h6.25v4.688H74.3l-1.37-9.598c-.11-.77-.77-1.34-1.547-1.34H69.82a1.565 1.565 0 0 0-1.562 1.434L66.82 87.5h-4.812v-25h18.75c.766 0 1.418-.555 1.543-1.305l1.515-9.082 12.399-20.668a4.642 4.642 0 0 0-7.465-5.441l-6.184 7.058a3.107 3.107 0 0 0-2.316.094l-.22.102h-.003a9.442 9.442 0 0 0 .613-2.082 1.563 1.563 0 0 0-3.086-.492 6.25 6.25 0 0 1-12.422-.997v-3.125h14.062A1.564 1.564 0 0 0 80.757 25a9.375 9.375 0 1 0-18.75 0v4.687c0 1.254.25 2.493.738 3.649a24.735 24.735 0 0 0-4.562-.102 9.383 9.383 0 0 0 .699-3.547V25c-.004-5.176-4.2-9.367-9.375-9.375h-7.813c-.863 0-1.562.699-1.562 1.562v12.5a9.38 9.38 0 0 0 .644 3.387 3.14 3.14 0 0 0-2.437 0l-6.074-6.937a4.757 4.757 0 0 0-5.625-1.262 4.64 4.64 0 0 0-1.969 6.563l12.406 20.675 1.441 8.649-6.093 15.219v.004a1.56 1.56 0 0 0-.012 1.129l4.043 10.78a6.237 6.237 0 0 0-4.137 5.856v1.563a1.568 1.568 0 0 0 1.563 1.562zm12.723-46.117a1.617 1.617 0 0 0-.2.547l-1.347 8.07H62.008v-16.39c0-.7.465-1.313 1.133-1.505l2.277-.652a6.213 6.213 0 0 0 11.824.344 4.687 4.687 0 0 0 5.45 1.172 4.695 4.695 0 0 0 2.336-6.203l-.344-.758 3.015-3.438 3.008 2.606zm12.094-22.961a1.51 1.51 0 0 1 .46 2.04l-1.19 1.987-2.586-2.238 1.336-1.527h.003c.5-.57 1.344-.68 1.977-.262zm-11.539 8.207v.008l.64 1.406-.003.004a1.562 1.562 0 0 1-2.844 1.29l-.645-1.427zm-7.031 2.516v.543a3.124 3.124 0 1 1-6.25 0v-.547a9.363 9.363 0 0 0 3.125.547 9.481 9.481 0 0 0 3.129-.543zm-3.121-19.77a6.264 6.264 0 0 1 6.054 4.687H65.333a6.26 6.26 0 0 1 6.051-4.687zM55.759 29.688a6.25 6.25 0 0 1-12.5 0v-3.125h12.5zm-9.375 8.828c2.02.73 4.23.73 6.25 0v.547a3.124 3.124 0 1 1-6.25 0zM43.259 18.75h6.25a6.264 6.264 0 0 1 6.054 4.687H43.258zm-3.696 17.188L42.27 37.5l-.78 1.352a1.563 1.563 0 0 1-2.707-1.562zm-12.355-7.313c.121-.414.414-.754.801-.937a1.659 1.659 0 0 1 1.906.504l1.22 1.39-2.583 2.239-1.191-1.977a1.488 1.488 0 0 1-.153-1.219zM41.192 62.5h11.934a1.562 1.562 0 1 0 0-3.125H41.458l-1.343-8.07a1.624 1.624 0 0 0-.204-.547l-9.726-16.211 3.008-2.605 3.058 3.488-.172.297a4.696 4.696 0 0 0 1.72 6.406 4.628 4.628 0 0 0 5.847-1 6.234 6.234 0 0 0 12.113-2.07v-2.387l.828-.125c2.532-.39 5.11-.332 7.618.168l.937.187v.75l-2.852.813a4.711 4.711 0 0 0-3.398 4.508V87.5H53.99l-1.356-9.485v-7.703a1.564 1.564 0 0 0-1.562-1.562h-3.125c-.492 0-.953.23-1.25.625l-4.688 6.25a1.565 1.565 0 0 0-.265 1.316l2.64 10.559h-4.73L35.56 76.582zm3.63 31.25h-9.376a3.127 3.127 0 0 1 3.125-3.125h6.25zm3.077-5.066l-2.945-11.781 3.773-5.028h.782v6.25c0 .075.008.149.015.223l1.348 9.438.004-.004a6.226 6.226 0 0 0-2.93 1.875v-.594zm4.735 1.941h2.433a6.196 6.196 0 0 0-.87 3.125h-4.688a3.127 3.127 0 0 1 3.125-3.125zm14.062 3.125H57.32a3.127 3.127 0 0 1 3.125-3.125h6.25zm26.562-9.375a3.127 3.127 0 0 1-3.125-3.125V75h3.125z"></path><path d="M16.25 60.227a6.247 6.247 0 0 0-7.656 4.418l-1.485 5.562a1.562 1.562 0 1 0 3.02.805l1.484-5.558a3.126 3.126 0 0 1 3.82-2.211l3.02.804-2.426 9.063v.004a1.568 1.568 0 0 0 1.106 1.914c.132.035.27.05.406.05a1.56 1.56 0 0 0 1.508-1.156l2.426-9.062 3.019.805a3.142 3.142 0 0 1 2.227 3.804l-4.063 15.117a6.166 6.166 0 0 0-5.414 1.04 6.165 6.165 0 0 0-2.426 4.953l-6.25-1.68a3.126 3.126 0 0 1-2.21-3.82l2.156-8.032a1.56 1.56 0 0 0-1.106-1.914 1.562 1.562 0 0 0-1.914 1.102l-2.156 8.031a6.25 6.25 0 0 0 4.418 7.656l8.133 2.188h.003a6.194 6.194 0 0 0 3.54 2.566c.527.137 1.07.203 1.613.2a6.204 6.204 0 0 0 5.82-3.829 6.197 6.197 0 0 0-1.41-6.82l4.273-15.914v-.039l4.036-15.059 1.507.406.004-.004a1.56 1.56 0 0 0 .805-3.015l-6.035-1.618A1.56 1.56 0 1 0 29.234 54l1.508.402-2.656 9.895v.004a6.138 6.138 0 0 0-2.774-1.652zm7.813 31.207a3.109 3.109 0 0 1-1.45 1.93 3.103 3.103 0 0 1-2.39.324 3.115 3.115 0 0 1-1.91-1.477 3.123 3.123 0 0 1 3.527-4.559 3.125 3.125 0 0 1 2.223 3.782z"></path><path d="M15.117 84.129a1.56 1.56 0 0 0 1.508-1.16l.808-3.02c.121-.402.075-.84-.132-1.207a1.565 1.565 0 0 0-2.164-.582c-.364.219-.622.57-.72.98l-.808 3.02a1.54 1.54 0 0 0 .156 1.188 1.55 1.55 0 0 0 1.352.781z"></path></g></svg>